# xmcd CD database file
#
# Track frame offsets:
#	150
#	13077
#	31595
#	46022
#	58850
#	77670
#	93475
#	110602
#	124230
#	135112
#	155175
#	169742
#
# Disc length: 2406 seconds
#
# Revision: 1
# Processed by: cddbd v1.4PL0 Copyright (c) Steve Scherf et al.
# Submitted via: CDex 1.40Release
#
DISCID=9209640c
DTITLE=Paul Brewster -  Everybody's Talkin'
DYEAR=2001
DGENRE=Country
TTITLE0=Paul Brewster - Everybody's Talkin'
TTITLE1=Paul Brewster - Til The River Runs Dry
TTITLE2=Paul Brewster - Darby's Castle
TTITLE3=Paul Brewster - Kentucky Waltz
TTITLE4=Paul Brewster - Lord, Savior, And Guide
TTITLE5=Paul Brewster - Don't Go
TTITLE6=Paul Brewster - Lord, I Hope This Day Is Good
TTITLE7=Paul Brewster - Teresa's Song
TTITLE8=Paul Brewster - I Just Couldn't Tell You Goodbye
TTITLE9=Paul Brewster - Slowly I'm Falling To Pieces
TTITLE10=Paul Brewster - It Is Finished
TTITLE11=Paul Brewster - Roll Muddy River
EXTD=YEAR: 2001 ID3G: 2
EXTT0=
EXTT1=
EXTT2=
EXTT3=
EXTT4=
EXTT5=
EXTT6=
EXTT7=
EXTT8=
EXTT9=
EXTT10=
EXTT11=
PLAYORDER=
